<svg width="40" height="40" viewBox="0 0 40 40" fill="none" xmlns="http://www.w3.org/2000/svg">
<path d="M31.9135 16.5273C31.7651 15.0117 31.4877 13.6406 31.1323 12.293H8.86775C8.50839 13.6406 8.23497 15.0117 8.08654 16.5273C7.84436 19.0117 7.84436 21.7617 6.9655 23.8945C6.08663 26.0273 5.89524 29.0977 7.40298 32.8008C7.30533 31.1914 7.5475 30.4609 7.64515 29.6836C7.98498 31.4883 9.00837 33.2891 9.64115 34.4102C9.71536 33.3984 9.88332 32.668 9.88332 32.668C10.2622 33.8633 12.9769 37.1523 14.0003 37.7344C13.7699 37.0039 13.5745 36.418 13.5745 36.418C13.5745 36.418 17.0588 39.6211 17.9103 40C17.7775 39.6836 17.5704 39.3906 17.508 39.1601C17.9064 39.6172 19.0704 39.9492 19.9805 39.9687C19.9844 39.9687 19.9883 39.9687 19.9922 39.9687C19.9961 39.9687 20 39.9687 20.0039 39.9687C20.914 39.9492 22.078 39.6211 22.4765 39.1601C22.414 39.3906 22.2069 39.6836 22.0741 40C22.9257 39.6211 26.4099 36.418 26.4099 36.418C26.4099 36.418 26.2146 37.0039 25.9841 37.7344C27.0075 37.1484 29.7222 33.8594 30.1011 32.668C30.1011 32.668 30.273 33.3984 30.3433 34.4102C30.976 33.2891 31.9994 31.4883 32.3393 29.6836C32.4369 30.4648 32.6791 31.1953 32.5814 32.8008C34.0931 29.0977 33.8978 26.0273 33.0189 23.8945C32.1557 21.7617 32.1557 19.0117 31.9135 16.5273Z" fill="#005679"/>
<path d="M25.9606 30.375C25.0935 30.8906 24.2146 31.1328 23.2068 31.4063C21.7538 31.7969 21.0937 31.9063 20 31.9102C18.9063 31.9102 18.2462 31.8008 16.7931 31.4063C15.7853 31.1328 14.9065 30.8906 14.0393 30.375C13.8128 30.2383 13.4026 29.9688 13.3753 30.1797C13.348 30.3984 13.348 30.5625 13.348 30.7031C13.3636 32.0664 14.0823 33.8164 15.5002 34.4297C17.3712 35.2344 18.5469 34.5742 19.9961 34.4961C21.4452 34.5703 22.6209 35.2344 24.4919 34.4297C25.9098 33.8203 26.6285 32.0703 26.6442 30.7031C26.6442 30.5625 26.6442 30.3984 26.6168 30.1797C26.5973 29.9688 26.1872 30.2383 25.9606 30.375Z" fill="#05D8E8"/>
<path d="M25.2771 25.0781C25.2615 25.0742 25.2458 25.0703 25.2302 25.0703C25.2185 25.0664 25.2068 25.0664 25.1911 25.0625C25.1482 25.0547 25.1052 25.0508 25.0622 25.0469C24.324 25 23.6678 25.2578 22.7616 26.2383C23.3944 25.1406 23.7029 24.9609 23.949 24.7578C24.3865 24.4062 24.906 23.6367 24.492 22.75C24.1443 22.0039 23.3631 21.5352 22.4178 21.5742C22.4218 21.5742 22.4217 21.5742 22.4257 21.5703C22.4178 21.5664 22.41 21.5625 22.4061 21.5586C21.6249 20.8008 20.9414 20.1641 20.8359 20.0469C20.832 20.043 20.832 20.0391 20.8281 20.0391L20.8242 20.0352C21.5194 20.5469 21.9061 20.918 22.4882 21.3242C23.4803 21.3086 24.3279 21.8125 24.7185 22.6445C25.1365 23.543 24.7341 24.4258 24.1404 24.9219C24.4412 24.8164 24.7498 24.7813 25.0779 24.8008C25.1638 24.8047 25.2419 24.8164 25.32 24.832C25.4529 24.0859 25.5661 23.3047 25.6482 22.8516C25.8903 21.5391 27.6481 19.2109 27.6481 17.707C27.6481 15.5859 25.5622 15.5625 24.6951 15.793C24.8162 15.668 25.1599 15.5273 25.3044 15.4062C24.9412 15.4883 24.2732 15.625 23.5233 15.7695C23.6639 15.6367 23.8904 15.5039 24.1209 15.3945C22.9998 15.5977 21.7655 16.2617 19.9961 16.3242C18.2266 16.2617 16.9923 15.5977 15.8713 15.3945C16.0978 15.5039 16.3283 15.6367 16.4689 15.7695C15.719 15.625 15.0471 15.4883 14.6878 15.4062C14.8323 15.5273 15.176 15.668 15.2971 15.793C14.43 15.5586 12.348 15.5859 12.3441 17.707C12.3441 19.2109 14.1018 21.5391 14.344 22.8516C14.426 23.3047 14.5393 24.0859 14.6721 24.832C14.7502 24.8164 14.8284 24.8086 14.9143 24.8008C15.2463 24.7773 15.551 24.8164 15.8518 24.9219C15.258 24.4297 14.8557 23.543 15.2737 22.6445C15.6604 21.8125 16.5119 21.3086 17.504 21.3242C18.086 20.918 18.4727 20.5508 19.168 20.0352C19.168 20.0352 19.168 20.0391 19.1641 20.0391C19.1602 20.043 19.1602 20.0469 19.1563 20.0469C19.0508 20.1641 18.3712 20.7969 17.586 21.5586C17.5782 21.5625 17.5704 21.5664 17.5665 21.5703C17.5704 21.5703 17.5704 21.5703 17.5743 21.5742C16.6252 21.5352 15.8439 22.0039 15.5002 22.75C15.0862 23.6367 15.6018 24.4062 16.0432 24.7578C16.2931 24.9648 16.5978 25.1445 17.2306 26.2383C16.3244 25.2578 15.6682 25 14.9299 25.0469C14.887 25.0508 14.844 25.0547 14.801 25.0625C14.7893 25.0625 14.7737 25.0664 14.762 25.0703C14.7463 25.0742 14.7307 25.0742 14.7151 25.0781C13.3011 25.3555 13.0706 27.3906 13.141 28.1992C13.18 28.6328 13.3402 29.1289 13.7542 29.3242C15.7424 30.2539 17.3751 31.1328 19.9766 31.1406C19.9805 31.1406 19.9844 31.1406 19.9883 31.1406C19.9922 31.1406 19.9961 31.1406 20 31.1406C22.6014 31.1367 24.2342 30.2539 26.2223 29.3242C26.6364 29.1289 26.7965 28.6328 26.8356 28.1992C26.9215 27.3906 26.6911 25.3555 25.2771 25.0781Z" fill="#05D8E8"/>
<path d="M20.5312 23.957C20.5429 23.8711 20.6249 23.4688 20.7773 23.2695C20.9335 23.0664 21.1405 22.8945 21.3202 22.7891C21.5155 22.6758 21.8671 22.5586 22.0975 22.5274C22.6991 22.4453 23.035 22.6328 23.3475 22.9141C23.5232 23.0703 23.5818 23.3516 23.5818 23.4688C23.5818 24.0274 23.1014 24.3867 22.7537 24.5117C22.41 24.6367 22.0038 24.707 21.6561 24.832C21.4804 24.8945 21.1249 25.0899 20.8671 25.2031C20.7148 25.2695 20.539 25.1719 20.5351 25.0235C20.5273 24.6641 20.496 24.2813 20.5312 23.957Z" fill="#005679"/>
<path d="M19.4688 23.957C19.4571 23.8711 19.375 23.4688 19.2227 23.2695C19.0665 23.0664 18.8594 22.8945 18.6798 22.7891C18.4845 22.6758 18.1329 22.5586 17.9025 22.5274C17.3009 22.4453 16.965 22.6328 16.6525 22.9141C16.4767 23.0703 16.4182 23.3516 16.4182 23.4688C16.4182 24.0274 16.8986 24.3867 17.2462 24.5117C17.59 24.6367 17.9962 24.707 18.3438 24.832C18.5196 24.8945 18.8751 25.0899 19.1329 25.2031C19.2852 25.2695 19.461 25.1719 19.4649 25.0235C19.4727 24.6641 19.5039 24.2813 19.4688 23.957Z" fill="#005679"/>
<path d="M18.172 18.586C17.8048 17.8867 16.8674 17.6524 16.2033 17.5938C15.5393 17.5352 14.7151 17.6406 14.1136 18.0781C14.1136 18.0781 14.5706 17.9688 15.301 17.9649C15.1448 18.1485 15.051 18.3828 15.051 18.6445C15.051 19.2227 15.5198 19.6914 16.0979 19.6914C16.676 19.6914 17.1447 19.2227 17.1447 18.6445C17.1447 18.4727 17.1017 18.3086 17.0275 18.1641C17.7462 18.3438 18.172 18.586 18.172 18.586Z" fill="#005679"/>
<path d="M21.8281 18.586C22.1952 17.8867 23.1327 17.6524 23.7967 17.5938C24.4608 17.5352 25.2849 17.6406 25.8865 18.0781C25.8865 18.0781 25.4295 17.9688 24.699 17.9649C24.8553 18.1485 24.949 18.3828 24.949 18.6445C24.949 19.2227 24.4803 19.6914 23.9022 19.6914C23.3241 19.6914 22.8554 19.2227 22.8554 18.6445C22.8554 18.4727 22.8983 18.3086 22.9725 18.1641C22.2538 18.3438 21.8281 18.586 21.8281 18.586Z" fill="#005679"/>
<path d="M35.2376 24.5742L34.2454 23.582C34.1712 23.5078 34.1712 23.3906 34.2454 23.3203L37.4367 20.1289C37.5109 20.0547 37.5109 19.9375 37.4367 19.8672L34.2454 16.6797C34.1712 16.6055 34.1712 16.4883 34.2454 16.418L35.2376 15.4258C35.3118 15.3516 35.429 15.3516 35.4993 15.4258L39.9444 19.8711C40.0186 19.9453 40.0186 20.0625 39.9444 20.1328L35.4993 24.5742C35.429 24.6484 35.3118 24.6484 35.2376 24.5742Z" fill="#F9E436"/>
<path d="M4.76246 24.5742L5.7546 23.582C5.82882 23.5078 5.82882 23.3906 5.7546 23.3203L2.56335 20.1289C2.48914 20.0547 2.48914 19.9375 2.56335 19.8672L5.7546 16.6758C5.82882 16.6016 5.82882 16.4844 5.7546 16.4141L4.76246 15.4219C4.68825 15.3477 4.57107 15.3477 4.50076 15.4219L0.0556613 19.8672C-0.0185538 19.9414 -0.0185538 20.0586 0.0556613 20.1289L4.50076 24.5742C4.57107 24.6484 4.68825 24.6484 4.76246 24.5742Z" fill="#F9E436"/>
<path d="M36.4172 9.85937H30.9956C30.3901 4.31641 25.6912 0 19.9883 0C14.2816 0 9.58647 4.31641 8.97712 9.85937H3.55942C3.20787 9.85937 2.92273 10.1445 2.92273 10.4961V11.6562C2.92273 12.0078 3.20787 12.293 3.55942 12.293H36.4172C36.7687 12.293 37.0539 12.0078 37.0539 11.6562V10.4961C37.0539 10.1445 36.7687 9.85937 36.4172 9.85937Z" fill="#F9E436"/>
<path d="M30.9956 9.85938H8.97711C9.09039 8.80859 9.356 7.80078 9.7427 6.85938H30.2261C30.6167 7.80078 30.8823 8.80859 30.9956 9.85938Z" fill="#E235F9"/>
</svg>
