<svg width="104" height="112" viewBox="0 0 104 112" fill="none" xmlns="http://www.w3.org/2000/svg">
<path fill-rule="evenodd" clip-rule="evenodd" d="M64 4H4L4 108H64V4ZM4 0C1.79086 0 0 1.79086 0 4V108C0 110.209 1.79086 112 4 112H64C66.2091 112 68 110.209 68 108V4C68 1.79086 66.2091 0 64 0H4Z" fill="#05D8E8"/>
<path fill-rule="evenodd" clip-rule="evenodd" d="M100 12H88V88H100V12ZM88 8C85.7909 8 84 9.79086 84 12V88H104V12C104 9.79086 102.209 8 100 8H88Z" fill="#05D8E8"/>
<path fill-rule="evenodd" clip-rule="evenodd" d="M92.304 101.286C93.0873 102.54 94.9127 102.54 95.696 101.286L104 88H84L92.304 101.286ZM94 96.4528L96.783 92H91.217L94 96.4528Z" fill="#05D8E8"/>
<path d="M56 34C56 21.8497 46.1503 12 34 12C21.8497 12 12 21.8497 12 34C12 43.0037 17.4088 50.7442 25.1544 54.1494C26.7929 54.8698 28 56.4076 28 58.1974V68H24V58.0073C14.6042 54.0891 8 44.8158 8 34C8 19.6406 19.6406 8 34 8C48.3594 8 60 19.6406 60 34C60 44.8158 53.3958 54.0891 44 58.0073V68H40V58.1974C40 56.4076 41.2071 54.8698 42.8456 54.1494C50.5912 50.7442 56 43.0037 56 34Z" fill="#05D8E8"/>
<path fill-rule="evenodd" clip-rule="evenodd" d="M22 40C22 38.8954 22.8954 38 24 38H44C45.1046 38 46 38.8954 46 40C46 41.1046 45.1046 42 44 42H36V68H32V42H24C22.8954 42 22 41.1046 22 40Z" fill="#05D8E8"/>
<path fill-rule="evenodd" clip-rule="evenodd" d="M40 68H28V72C28 72.4828 28.2209 73.4882 28.9732 74.3241C29.6102 75.032 30.9679 76 34 76C37.0321 76 38.3898 75.032 39.0268 74.3241C39.7791 73.4882 40 72.4828 40 72V68ZM44 64V72C44 74.6667 42 80 34 80C26 80 24 74.6667 24 72V64H44Z" fill="#05D8E8"/>
<path fill-rule="evenodd" clip-rule="evenodd" d="M24.1686 23.2231C23.0169 24.0523 22 25.4518 22 28C22 29.1046 21.1046 30 20 30C18.8954 30 18 29.1046 18 28C18 24.1482 19.6497 21.5477 21.8314 19.9769C23.9111 18.4796 26.3466 18 28 18C29.1046 18 30 18.8954 30 20C30 21.1046 29.1046 22 28 22C26.9867 22 25.4223 22.3204 24.1686 23.2231Z" fill="#05D8E8"/>
<path fill-rule="evenodd" clip-rule="evenodd" d="M60 92H8V88H60V92Z" fill="#05D8E8"/>
<path fill-rule="evenodd" clip-rule="evenodd" d="M60 100H8V96H60V100Z" fill="#05D8E8"/>
</svg>
