<svg width="96" height="78" viewBox="0 0 96 78" fill="none" xmlns="http://www.w3.org/2000/svg">
<path fill-rule="evenodd" clip-rule="evenodd" d="M92 4.10526H4V61.5789H92V4.10526ZM4 0C1.79086 0 0 1.83799 0 4.10526V61.5789C0 63.8462 1.79086 65.6842 4 65.6842H92C94.2091 65.6842 96 63.8462 96 61.5789V4.10526C96 1.83799 94.2091 0 92 0H4Z" fill="#05D8E8"/>
<path fill-rule="evenodd" clip-rule="evenodd" d="M52.6325 14.4738C53.6803 14.8322 54.2467 15.9947 53.8974 17.0701L45.8974 41.7017C45.5481 42.7772 44.4154 43.3584 43.3675 42.9999C42.3197 42.6414 41.7533 41.479 42.1026 40.4035L50.1026 15.7719C50.4519 14.6965 51.5846 14.1153 52.6325 14.4738ZM37.4142 19.0749C38.1953 19.8765 38.1953 21.1761 37.4142 21.9777L30.8284 28.7368L37.4142 35.4959C38.1953 36.2975 38.1953 37.5972 37.4142 38.3988C36.6332 39.2004 35.3668 39.2004 34.5858 38.3988L26.5858 30.1883C25.8047 29.3867 25.8047 28.087 26.5858 27.2854L34.5858 19.0749C35.3668 18.2733 36.6332 18.2733 37.4142 19.0749ZM58.5858 19.0749C59.3668 18.2733 60.6332 18.2733 61.4142 19.0749L69.4142 27.2854C70.1953 28.087 70.1953 29.3867 69.4142 30.1883L61.4142 38.3988C60.6332 39.2004 59.3668 39.2004 58.5858 38.3988C57.8047 37.5972 57.8047 36.2975 58.5858 35.4959L65.1716 28.7368L58.5858 21.9777C57.8047 21.1761 57.8047 19.8765 58.5858 19.0749Z" fill="#05D8E8"/>
<path fill-rule="evenodd" clip-rule="evenodd" d="M92 57.4737H4V53.3684H92V57.4737Z" fill="#05D8E8"/>
<path fill-rule="evenodd" clip-rule="evenodd" d="M40 73.8947V65.6841H44V73.8947H40Z" fill="#05D8E8"/>
<path fill-rule="evenodd" clip-rule="evenodd" d="M52 73.8947V65.6841H56V73.8947H52Z" fill="#05D8E8"/>
<path fill-rule="evenodd" clip-rule="evenodd" d="M32 75.9473C32 74.8137 32.8954 73.8947 34 73.8947H62C63.1046 73.8947 64 74.8137 64 75.9473C64 77.081 63.1046 78 62 78H34C32.8954 78 32 77.081 32 75.9473Z" fill="#05D8E8"/>
</svg>
