<svg width="56" height="104" viewBox="0 0 56 104" fill="none" xmlns="http://www.w3.org/2000/svg">
<path fill-rule="evenodd" clip-rule="evenodd" d="M32.2113 32.0884C33.164 32.3878 33.6788 33.3586 33.3612 34.2568L26.0885 54.8274C25.771 55.7256 24.7413 56.211 23.7887 55.9116C22.8361 55.6122 22.3212 54.6414 22.6388 53.7432L29.9115 33.1726C30.229 32.2744 31.2587 31.789 32.2113 32.0884ZM18.3766 35.931C19.0866 36.6004 19.0866 37.6858 18.3766 38.3553L12.3895 44L18.3766 49.6447C19.0866 50.3142 19.0866 51.3996 18.3766 52.069C17.6665 52.7385 16.5153 52.7385 15.8053 52.069L8.53253 45.2121C7.82249 44.5427 7.82249 43.4573 8.53253 42.7879L15.8053 35.931C16.5153 35.2615 17.6665 35.2615 18.3766 35.931ZM37.6234 35.931C38.3335 35.2615 39.4847 35.2615 40.1947 35.931L47.4675 42.7879C48.1775 43.4573 48.1775 44.5427 47.4675 45.2121L40.1947 52.069C39.4847 52.7385 38.3335 52.7385 37.6234 52.069C36.9134 51.3996 36.9134 50.3142 37.6234 49.6447L43.6105 44L37.6234 38.3553C36.9134 37.6858 36.9134 36.6004 37.6234 35.931Z" fill="#05D8E8"/>
<path fill-rule="evenodd" clip-rule="evenodd" d="M28 96C30.2091 96 32 94.2091 32 92C32 89.7909 30.2091 88 28 88C25.7909 88 24 89.7909 24 92C24 94.2091 25.7909 96 28 96Z" fill="#05D8E8"/>
<path fill-rule="evenodd" clip-rule="evenodd" d="M52 84H4V80H52V84Z" fill="#05D8E8"/>
<path fill-rule="evenodd" clip-rule="evenodd" d="M52 4H4V100H52V4ZM4 0C1.79086 0 0 1.79086 0 4V100C0 102.209 1.79086 104 4 104H52C54.2091 104 56 102.209 56 100V4C56 1.79086 54.2091 0 52 0H4Z" fill="#05D8E8"/>
</svg>
