<svg width="26" height="26" viewBox="0 0 26 26" fill="none" xmlns="http://www.w3.org/2000/svg">
<path d="M5.72265 25.0038H0.53961V8.31299H5.72265V25.0038ZM3.12834 6.0362C1.47097 6.0362 0.126663 4.66343 0.126663 3.00607C0.126663 2.20998 0.44291 1.44649 1.00583 0.883564C1.56876 0.320641 2.33224 0.00439453 3.12834 0.00439453C3.92443 0.00439453 4.68792 0.320641 5.25084 0.883564C5.81376 1.44649 6.13001 2.20998 6.13001 3.00607C6.13001 4.66343 4.78515 6.0362 3.12834 6.0362ZM25.1211 25.0038H19.9492V16.8788C19.9492 14.9425 19.9101 12.4592 17.2545 12.4592C14.5597 12.4592 14.1468 14.563 14.1468 16.7393V25.0038H8.9693V8.31299H13.9403V10.5898H14.0128C14.7048 9.27839 16.3951 7.89446 18.9168 7.89446C24.1624 7.89446 25.1267 11.3487 25.1267 15.8353V25.0038H25.1211Z" fill="white"/>
</svg>
