<svg width="150" height="150" viewBox="0 0 150 150" xmlns="http://www.w3.org/2000/svg">
<path fill-rule="evenodd" clip-rule="evenodd" d="M137.5 150C137.5 150 150 150 150 137.5C150 125 137.5 87.5 75 87.5C12.5 87.5 0 125 0 137.5C0 150 12.5 150 12.5 150H137.5ZM12.5625 138.2V138.175V138.2ZM12.775 137.5H137.225C137.284 137.493 137.342 137.485 137.4 137.475L137.5 137.45C137.488 134.375 135.575 125.125 127.1 116.65C118.95 108.5 103.613 100 75 100C46.375 100 31.05 108.5 22.9 116.65C14.425 125.125 12.525 134.375 12.5 137.45C12.5915 137.468 12.6832 137.484 12.775 137.5ZM137.45 138.2V138.175V138.2ZM75 62.5C81.6304 62.5 87.9893 59.8661 92.6777 55.1777C97.3661 50.4893 100 44.1304 100 37.5C100 30.8696 97.3661 24.5107 92.6777 19.8223C87.9893 15.1339 81.6304 12.5 75 12.5C68.3696 12.5 62.0107 15.1339 57.3223 19.8223C52.6339 24.5107 50 30.8696 50 37.5C50 44.1304 52.6339 50.4893 57.3223 55.1777C62.0107 59.8661 68.3696 62.5 75 62.5ZM112.5 37.5C112.5 47.4456 108.549 56.9839 101.517 64.0165C94.4839 71.0491 84.9456 75 75 75C65.0544 75 55.5161 71.0491 48.4835 64.0165C41.4509 56.9839 37.5 47.4456 37.5 37.5C37.5 27.5544 41.4509 18.0161 48.4835 10.9835C55.5161 3.95088 65.0544 0 75 0C84.9456 0 94.4839 3.95088 101.517 10.9835C108.549 18.0161 112.5 27.5544 112.5 37.5Z" fill="#05D8E8"/>
</svg>
