<svg width="44" height="28" viewBox="0 0 44 28" fill="none" xmlns="http://www.w3.org/2000/svg">
<path d="M30 12.0001C33.32 12.0001 35.98 9.32006 35.98 6.00006C35.98 2.68006 33.32 6.10352e-05 30 6.10352e-05C26.68 6.10352e-05 24 2.68006 24 6.00006C24 9.32006 26.68 12.0001 30 12.0001ZM14 12.0001C17.32 12.0001 19.98 9.32006 19.98 6.00006C19.98 2.68006 17.32 6.10352e-05 14 6.10352e-05C10.68 6.10352e-05 8 2.68006 8 6.00006C8 9.32006 10.68 12.0001 14 12.0001ZM14 16.0001C9.34 16.0001 0 18.3401 0 23.0001V28.0001H28V23.0001C28 18.3401 18.66 16.0001 14 16.0001ZM30 16.0001C29.42 16.0001 28.76 16.0401 28.06 16.1001C30.38 17.7801 32 20.0401 32 23.0001V28.0001H44V23.0001C44 18.3401 34.66 16.0001 30 16.0001Z" fill="white"/>
</svg>
