<svg width="128" height="76" viewBox="0 0 128 76" fill="none" xmlns="http://www.w3.org/2000/svg">
<path fill-rule="evenodd" clip-rule="evenodd" d="M124 32H92V44H124V32ZM92 28C89.7909 28 88 29.7909 88 32V44C88 46.2091 89.7909 48 92 48H124C126.209 48 128 46.2091 128 44V32C128 29.7909 126.209 28 124 28H92Z" fill="#05D8E8"/>
<path fill-rule="evenodd" clip-rule="evenodd" d="M124 60H92V72H124V60ZM92 56C89.7909 56 88 57.7909 88 60V72C88 74.2091 89.7909 76 92 76H124C126.209 76 128 74.2091 128 72V60C128 57.7909 126.209 56 124 56H92Z" fill="#05D8E8"/>
<path fill-rule="evenodd" clip-rule="evenodd" d="M124 4H92V16H124V4ZM92 0C89.7909 0 88 1.79086 88 4V16C88 18.2091 89.7909 20 92 20H124C126.209 20 128 18.2091 128 16V4C128 1.79086 126.209 0 124 0H92Z" fill="#05D8E8"/>
<path fill-rule="evenodd" clip-rule="evenodd" d="M76 10C76 8.89543 76.8954 8 78 8H88V12H80V36H88V40H80V64H88V68H78C76.8954 68 76 67.1046 76 66V40H66C64.8954 40 64 39.1046 64 38C64 36.8954 64.8954 36 66 36H76V10Z" fill="#05D8E8"/>
<path fill-rule="evenodd" clip-rule="evenodd" d="M47.6706 56C47.2065 53.0403 46.244 49.9631 44.6738 47.6757C43.1097 45.3972 41.0534 44 38 44C34.9465 44 32.8902 45.3972 31.3261 47.6757C29.7559 49.9631 28.7934 53.0403 28.3293 56H47.6706ZM27.9999 60H47.9999C50.2091 60 52.0146 58.2045 51.7156 56.0157C50.7698 49.0934 47.2493 40 38 40C28.7506 40 25.2301 49.0934 24.2843 56.0157C23.9853 58.2045 25.7908 60 27.9999 60Z" fill="#05D8E8"/>
<path fill-rule="evenodd" clip-rule="evenodd" d="M38 32C41.3137 32 44 29.3137 44 26C44 22.6863 41.3137 20 38 20C34.6863 20 32 22.6863 32 26C32 29.3137 34.6863 32 38 32ZM38 36C43.5228 36 48 31.5228 48 26C48 20.4772 43.5228 16 38 16C32.4772 16 28 20.4772 28 26C28 31.5228 32.4772 36 38 36Z" fill="#05D8E8"/>
<path fill-rule="evenodd" clip-rule="evenodd" d="M38 68C54.5685 68 68 54.5685 68 38C68 21.4315 54.5685 8 38 8C21.4315 8 8 21.4315 8 38C8 54.5685 21.4315 68 38 68ZM38 72C56.7777 72 72 56.7777 72 38C72 19.2223 56.7777 4 38 4C19.2223 4 4 19.2223 4 38C4 56.7777 19.2223 72 38 72Z" fill="#05D8E8"/>
<path fill-rule="evenodd" clip-rule="evenodd" d="M38 64C39.1046 64 40 64.8954 40 66V74C40 75.1046 39.1046 76 38 76C36.8954 76 36 75.1046 36 74V66C36 64.8954 36.8954 64 38 64Z" fill="#05D8E8"/>
<path fill-rule="evenodd" clip-rule="evenodd" d="M12 38C12 39.1046 11.1046 40 10 40H2C0.895431 40 0 39.1046 0 38C0 36.8954 0.895431 36 2 36H10C11.1046 36 12 36.8954 12 38Z" fill="#05D8E8"/>
<path fill-rule="evenodd" clip-rule="evenodd" d="M38 12C36.8954 12 36 11.1046 36 10V2C36 0.895431 36.8954 0 38 0C39.1046 0 40 0.895431 40 2V10C40 11.1046 39.1046 12 38 12Z" fill="#05D8E8"/>
</svg>
